<svg width="166" height="24" viewBox="0 0 166 24" fill="none" xmlns="http://www.w3.org/2000/svg">
<g clip-path="url(#clip0_1_228)">
<path d="M165.023 23.4659C163.518 23.4659 162.001 23.4659 160.447 23.4659C160.383 23.0454 160.326 22.6721 160.255 22.2114C160.059 22.3036 159.913 22.3437 159.799 22.4288C156.835 24.6849 152.93 24.4722 150.217 21.9067C146.525 18.4127 146.57 12.0106 150.312 8.56862C152.97 6.12354 156.858 5.918 159.724 8.07014C159.844 8.16227 159.979 8.23552 160.187 8.37253C160.508 7.48191 160.307 6.622 160.343 5.78808C160.381 4.92344 160.35 4.05644 160.35 3.18944C160.35 2.32953 160.35 1.46726 160.35 0.517578C161.951 0.517578 163.466 0.517578 164.987 0.517578C165.273 1.34205 165.323 22.2516 165.023 23.4659ZM156.346 11.2027C153.983 11.1956 152.363 12.8115 152.327 15.2093C152.292 17.6615 153.924 19.3624 156.317 19.3671C158.71 19.3718 160.362 17.6756 160.336 15.2329C160.312 12.828 158.71 11.2098 156.346 11.2027Z" fill="#181818"/>
<path d="M144.474 7.10132C144.474 12.6104 144.474 17.9825 144.474 23.4373C142.908 23.4373 141.396 23.4373 139.799 23.4373C139.728 23.0923 139.653 22.7238 139.558 22.2655C139.386 22.3458 139.215 22.3931 139.083 22.4899C136.173 24.6752 132.289 24.4484 129.596 21.9253C125.991 18.5495 125.887 12.3553 129.376 8.85185C132.088 6.12801 136.019 5.82326 139.116 8.09588C139.232 8.18092 139.371 8.23763 139.57 8.34394C139.638 7.89036 139.693 7.51946 139.756 7.10132C141.335 7.10132 142.849 7.10132 144.474 7.10132ZM135.662 11.2001C133.286 11.2095 131.717 12.8112 131.708 15.2445C131.698 17.7415 133.286 19.3763 135.707 19.3645C138.117 19.355 139.688 17.699 139.662 15.1972C139.638 12.7758 138.051 11.1906 135.662 11.2001Z" fill="#181818"/>
<path d="M77.5818 23.4574C77.5818 15.7371 77.5818 8.1515 77.5818 0.497345C79.1647 0.497345 80.6837 0.497345 82.3751 0.497345C82.3751 3.07708 82.3751 5.64265 82.3751 8.43499C82.7177 8.1893 82.8382 8.10898 82.9516 8.01921C84.9903 6.38916 87.2629 6.16237 89.6159 7.09316C91.9995 8.03575 93.1217 10.0556 93.2256 12.4699C93.3815 16.082 93.2658 19.706 93.2658 23.422C91.6735 23.422 90.1309 23.422 88.4229 23.422C88.4229 22.9921 88.4229 22.5739 88.4229 22.1558C88.4229 19.4792 88.4441 16.8002 88.4134 14.1236C88.3874 11.7943 86.6156 10.5328 84.4068 11.2084C83.2587 11.5604 82.6681 12.3802 82.4673 13.507C82.3775 14.0079 82.3775 14.5252 82.3751 15.0355C82.3657 17.3979 82.3728 19.7603 82.3681 22.1227C82.3681 22.5456 82.3303 22.9708 82.309 23.4551C80.7002 23.4574 79.1883 23.4574 77.5818 23.4574Z" fill="#181818"/>
<path d="M124.622 17.1976C120.786 17.1976 116.982 17.1976 113.169 17.1976C113.439 19.7396 117.228 20.4129 120.233 18.4592C121.421 19.1419 122.669 19.86 123.973 20.6089C123.495 21.4688 122.832 22.0169 122.125 22.5059C118.825 24.7833 113.427 24.4077 110.464 21.7074C107.96 19.4254 107.081 15.5298 108.303 12.1303C109.47 8.88437 112.413 6.75586 115.957 6.59994C123.025 6.28338 125.775 12.8225 124.622 17.1976ZM119.992 13.5383C119.333 11.5704 117.986 10.7341 116.023 10.9278C114.28 11.1003 113.214 12.0051 113.021 13.5383C115.312 13.5383 117.592 13.5383 119.992 13.5383Z" fill="#181818"/>
<path d="M0.0179647 12.3893C-0.341119 6.04388 4.72858 0.400119 11.1259 0.0221358C17.8446 -0.374746 23.5096 4.61228 23.8947 11.1986C24.2986 18.0897 19.0447 23.698 12.4323 23.9272C5.53415 24.1658 0.169158 18.8386 0.0179647 12.3893ZM11.9197 21.7562C17.4855 21.7656 21.6669 17.57 21.6693 11.9759C21.6717 6.40061 17.4453 2.14358 11.9291 2.16248C6.47202 2.18374 2.23625 6.43368 2.21735 11.9073C2.19845 17.4802 6.40351 21.7467 11.9197 21.7562Z" fill="#181818"/>
<path d="M66.2518 6.97565C66.2518 5.94801 66.2518 4.98415 66.2518 3.90927C67.8913 3.41789 69.4457 2.95014 71.1537 2.4375C71.1537 4.04156 71.1537 5.44483 71.1537 6.98511C72.2948 6.98511 73.3342 6.98511 74.5249 6.98511C74.6288 8.61988 74.5981 10.1176 74.539 11.7123C73.3933 11.7123 72.3798 11.7123 71.3333 11.7123C71.26 12.0123 71.1632 12.232 71.1608 12.4517C71.1467 14.103 71.1301 15.7543 71.1585 17.4033C71.1774 18.5679 71.6215 19.0121 72.8098 19.1113C73.346 19.1562 73.887 19.1184 74.4965 19.1184C74.4965 20.6563 74.4965 22.0477 74.4965 23.4959C72.8901 23.6825 71.3734 23.7156 69.8615 23.3707C67.8582 22.9147 66.7219 21.6154 66.4856 19.6215C66.3156 18.1828 66.3297 16.7229 66.2943 15.27C66.2659 14.1408 66.2896 13.0116 66.2896 11.7879C65.3848 11.743 64.617 11.7075 63.75 11.665C63.75 10.1743 63.75 8.70493 63.75 7.12213C64.532 7.07252 65.3328 7.02762 66.2518 6.97565Z" fill="#181818"/>
<path d="M61.7157 16.3248C56.9366 16.3248 52.1929 16.3248 47.4563 16.3248C47.3405 18.4084 48.8383 20.4779 51.0046 21.3661C54.0237 22.6087 56.9838 21.8551 59.3462 19.1809C59.8825 19.4927 60.4376 19.8187 61.1511 20.2369C60.5534 20.8795 60.0998 21.4701 59.5446 21.9425C56.1711 24.8152 50.6124 24.5175 47.4728 21.3897C44.7254 18.6517 44.6474 14.012 46.0081 11.2645C47.6028 8.04222 51.0448 6.23027 54.7206 6.70747C59.1974 7.28862 62.5449 11.7583 61.7157 16.3248ZM59.5565 14.3238C59.6604 11.0519 56.7216 8.71786 53.96 8.65172C50.4305 8.56667 47.4492 11.0495 47.4208 14.3262C51.4676 14.3286 55.5144 14.3333 59.5565 14.3238Z" fill="#181818"/>
<path d="M96.9102 23.4347C96.9102 17.9421 96.9102 12.5653 96.9102 7.11761C98.4953 7.11761 100.005 7.11761 101.59 7.11761C101.637 7.90192 101.682 8.62482 101.744 9.64537C102.934 7.75545 104.392 6.78687 106.57 6.77979C106.672 8.56575 106.653 10.3045 106.575 12.1117C106.149 12.1448 105.807 12.1684 105.464 12.1944C103.163 12.3668 101.824 13.6284 101.708 15.9293C101.609 17.9326 101.67 19.943 101.661 21.9511C101.659 22.4165 101.661 22.8819 101.661 23.4347C100.036 23.4347 98.526 23.4347 96.9102 23.4347Z" fill="#181818"/>
<path d="M41.6516 23.4563C41.0587 23.4563 40.4893 23.4563 39.7995 23.4563C39.7759 23.0098 39.7334 22.5916 39.7334 22.1758C39.7263 19.4615 39.7381 16.7494 39.7239 14.035C39.7216 13.4468 39.6909 12.8538 39.5987 12.275C39.268 10.1749 37.9214 8.911 35.826 8.68657C32.5588 8.33458 30.0452 10.2765 29.8397 13.5578C29.6625 16.3785 29.7641 19.2181 29.7381 22.0483C29.7334 22.5089 29.6979 22.9696 29.6743 23.4657C28.9869 23.4657 28.4104 23.4657 27.8529 23.4657C27.5836 22.5231 27.5316 8.49286 27.7891 7.13685C28.0679 7.11086 28.3703 7.06126 28.6727 7.05653C28.9774 7.05181 29.2845 7.09197 29.6743 7.11796C29.7145 7.81723 29.7499 8.4716 29.7901 9.17796C30.3145 9.14725 30.4445 8.71729 30.6925 8.46451C33.1825 5.92966 37.8907 6.0407 40.2271 8.69603C41.2642 9.87487 41.732 11.2923 41.7556 12.816C41.8099 16.1966 41.7792 19.5796 41.7745 22.9602C41.7745 23.1043 41.7036 23.2531 41.6516 23.4563Z" fill="#181818"/>
</g>
<defs>
<clipPath id="clip0_1_228">
<rect width="165.228" height="24" fill="white"/>
</clipPath>
</defs>
</svg>
